<?xml version="1.0" standalone="no"?>
<!DOCTYPE svg PUBLIC "-//W3C//DTD SVG 20010904//EN"
 "http://www.w3.org/TR/2001/REC-SVG-20010904/DTD/svg10.dtd">
 
<svg version="1.0" xmlns="http://www.w3.org/2000/svg"
 width="1624.000000pt" height="1392.000000pt" viewBox="0 0 1624.000000 1392.000000"
 preserveAspectRatio="xMidYMid meet">

<g transform="translate(0.000000,1392.000000) scale(0.100000,-0.100000)"
fill="#000000" stroke="none">
<path d="M7640 13570 c-448 -34 -829 -95 -1238 -200 -2165 -558 -3902 -2181
-4617 -4314 -180 -540 -287 -1094 -326 -1690 -14 -208 -7 -768 11 -955 12
-118 12 -125 -6 -138 -186 -135 -371 -345 -487 -552 -75 -133 -134 -287 -162
-420 -37 -176 -37 -193 0 -1353 19 -612 40 -1142 46 -1178 74 -446 386 -751
820 -802 167 -20 248 -6 874 150 308 76 615 152 682 167 l122 29 86 -80 c308
-285 427 -387 649 -553 633 -476 1381 -848 2141 -1066 660 -189 1236 -264
1935 -252 434 7 724 36 1125 112 1560 296 2938 1128 3940 2380 481 602 881
1347 1120 2090 l42 130 99 27 c349 94 411 116 556 199 168 97 299 205 418 347
226 270 342 531 380 857 12 96 -53 2248 -71 2360 -52 335 -258 616 -537 735
-138 58 -222 74 -397 74 -154 0 -166 -2 -335 -43 -316 -76 -351 -84 -359 -75
-5 5 -40 81 -80 169 -552 1228 -1543 2310 -2738 2989 -828 470 -1699 745
-2663 842 -190 19 -844 28 -1030 14z m888 -2075 c559 -61 1108 -224 1593 -471
l146 -75 -13 -37 c-7 -20 -13 -46 -14 -57 -1 -54 -10 -52 -212 48 -378 188
-752 314 -1153 391 -493 94 -1031 99 -1535 15 -1605 -268 -2915 -1380 -3449
-2931 -36 -106 -48 -128 -135 -245 -151 -203 -138 -192 -115 -93 99 429 282
874 523 1273 451 747 1081 1332 1856 1720 554 278 1120 430 1795 481 111 8
579 -4 713 -19z m2206 -374 c3 -4 22 -11 42 -14 101 -17 269 -193 319 -334 11
-29 22 -53 26 -53 4 0 13 -26 19 -57 6 -32 18 -81 27 -109 9 -31 13 -63 8 -83
-4 -18 -3 -31 3 -31 38 0 28 -314 -16 -480 -11 -41 -23 -94 -27 -117 -4 -24
-10 -43 -15 -43 -4 0 -10 -12 -13 -27 -10 -52 -27 -118 -36 -138 -5 -11 -17
-42 -26 -70 -9 -27 -23 -64 -31 -82 -8 -17 -14 -38 -14 -46 0 -8 -6 -20 -14
-26 -8 -6 -19 -32 -25 -58 -7 -26 -23 -65 -37 -88 -13 -23 -24 -49 -24 -58 0
-8 -3 -17 -8 -19 -4 -1 -25 -41 -47 -88 -21 -47 -45 -91 -52 -99 -15 -14 -10
-139 8 -197 6 -18 16 -76 24 -130 8 -55 21 -133 30 -174 8 -41 18 -92 21 -112
4 -21 11 -38 15 -38 5 0 9 -12 9 -27 0 -31 30 -146 40 -153 4 -3 13 -28 19
-57 7 -29 19 -57 27 -64 8 -6 14 -17 14 -23 0 -18 50 -109 76 -137 13 -14 24
-30 24 -37 0 -7 4 -12 10 -12 5 0 23 -13 40 -30 17 -16 42 -33 55 -36 14 -3
25 -9 25 -14 0 -4 18 -12 40 -19 22 -6 40 -16 40 -20 0 -13 47 -22 75 -15 15
4 28 16 31 30 3 13 10 22 14 19 15 -9 110 -158 110 -171 0 -7 -10 -22 -22 -34
-18 -17 -35 -20 -108 -20 -88 0 -197 16 -214 31 -6 5 -19 9 -30 9 -12 0 -31 6
-42 13 -12 6 -41 23 -65 36 -50 27 -219 194 -219 215 0 8 -6 19 -13 23 -7 4
-21 25 -30 45 -10 20 -22 40 -27 43 -4 3 -14 22 -21 43 -6 20 -17 44 -24 52
-8 8 -17 29 -21 45 -4 17 -15 44 -24 60 -9 17 -20 48 -24 70 -4 22 -12 45 -16
50 -5 6 -16 51 -25 100 -10 50 -21 98 -26 107 -5 10 -9 34 -9 53 0 31 -3 35
-25 35 -17 0 -45 -21 -93 -70 -38 -38 -74 -70 -80 -70 -7 0 -12 -5 -12 -10 0
-6 -8 -13 -17 -17 -10 -3 -25 -11 -33 -18 -23 -18 -109 -45 -146 -45 -18 0
-35 -6 -38 -12 -5 -10 -7 -10 -12 0 -3 6 -16 12 -29 12 -13 0 -28 -6 -32 -12
-11 -17 -99 -78 -112 -78 -6 0 -11 -4 -11 -10 0 -5 -6 -10 -14 -10 -7 0 -29
-11 -49 -24 -19 -13 -50 -27 -68 -31 -19 -4 -41 -13 -49 -20 -8 -7 -46 -20
-85 -29 -38 -8 -99 -22 -135 -30 -85 -20 -196 -20 -290 0 -142 29 -160 33
-181 44 -20 11 -79 5 -79 -8 0 -4 -11 -20 -25 -36 -14 -16 -25 -33 -25 -39 0
-5 -13 -26 -30 -47 -16 -21 -30 -40 -30 -43 0 -17 -303 -327 -321 -327 -4 0
-22 -12 -38 -27 -42 -39 -54 -49 -78 -62 -12 -6 -27 -17 -35 -24 -7 -7 -28
-19 -45 -26 -18 -7 -33 -17 -33 -22 0 -5 -22 -18 -50 -30 -27 -12 -50 -25 -50
-29 0 -5 -13 -11 -30 -15 -16 -4 -30 -10 -30 -13 0 -10 -50 -32 -71 -32 -9 0
-22 -6 -28 -14 -7 -8 -28 -17 -49 -21 -20 -4 -56 -15 -79 -26 -22 -10 -67 -22
-100 -25 -32 -4 -66 -11 -75 -15 -25 -13 -279 -12 -291 0 -6 6 -24 11 -39 11
-50 0 -190 73 -249 130 -35 34 -109 128 -109 139 0 6 -15 11 -35 11 -24 0 -35
-5 -35 -14 0 -8 -18 -29 -41 -47 -38 -30 -47 -32 -134 -37 l-93 -5 -39 41
c-51 54 -61 67 -75 99 -7 15 -17 35 -24 43 -6 8 -14 24 -17 35 -3 11 -17 54
-31 95 -15 41 -26 85 -26 97 0 13 -4 23 -9 23 -4 0 -13 42 -20 93 -6 50 -17
112 -23 137 -6 25 -10 69 -9 98 1 51 1 52 -26 52 -42 0 -49 -10 -57 -70 -4
-30 -12 -57 -18 -61 -5 -3 -17 -42 -25 -85 -8 -43 -18 -81 -22 -84 -4 -3 -13
-25 -20 -50 -7 -25 -17 -54 -21 -65 -4 -11 -13 -40 -20 -65 -6 -25 -17 -54
-24 -65 -7 -11 -19 -44 -25 -72 -7 -29 -16 -53 -20 -53 -3 0 -12 -18 -19 -41
-19 -62 -64 -159 -74 -159 -4 0 -8 -6 -8 -12 0 -7 -6 -24 -13 -38 -97 -181
-151 -231 -256 -238 -35 -3 -66 0 -70 5 -3 5 -31 17 -61 27 -30 9 -67 29 -81
44 -47 50 -86 107 -100 145 -7 20 -16 37 -20 37 -4 0 -12 24 -18 53 -7 28 -18
66 -26 82 -16 35 -35 144 -35 201 0 22 -5 45 -11 51 -6 6 -11 71 -12 167 l-2
156 -31 0 c-27 0 -34 -7 -64 -62 -18 -35 -36 -65 -40 -68 -4 -3 -15 -22 -23
-42 -9 -21 -20 -38 -25 -38 -5 0 -14 -18 -21 -40 -6 -22 -15 -40 -19 -40 -4 0
-16 -22 -27 -50 -11 -27 -22 -50 -25 -50 -3 0 -12 -16 -19 -35 -7 -19 -16 -35
-20 -35 -4 0 -13 -19 -20 -42 -7 -24 -19 -50 -26 -58 -7 -8 -18 -32 -26 -52
-7 -21 -17 -38 -21 -38 -4 0 -8 -6 -8 -12 0 -7 -12 -35 -25 -63 -14 -27 -25
-55 -25 -61 0 -6 -9 -23 -20 -37 -11 -14 -20 -31 -20 -38 0 -6 -13 -39 -29
-73 -15 -34 -32 -72 -36 -86 -4 -14 -11 -27 -14 -30 -4 -3 -15 -25 -26 -50
-11 -25 -22 -47 -25 -50 -3 -3 -11 -16 -18 -30 -7 -14 -25 -46 -40 -72 -15
-25 -35 -61 -46 -80 -43 -78 -181 -224 -236 -252 -67 -34 -240 -59 -240 -35 0
4 -11 10 -24 13 -26 6 -36 38 -36 112 0 62 30 268 40 274 4 3 13 34 20 70 6
36 16 74 20 85 8 18 18 62 37 160 3 17 9 35 13 40 4 6 11 42 15 80 4 39 12 76
17 82 6 7 7 20 4 29 -4 9 -2 22 4 29 6 8 18 76 25 152 8 76 19 147 25 158 5
11 16 90 25 175 29 287 43 445 40 448 -6 6 -75 -22 -75 -30 0 -4 -12 -14 -27
-22 -16 -8 -49 -34 -74 -58 -25 -24 -59 -55 -75 -69 -46 -41 -188 -199 -230
-254 -20 -27 -44 -58 -53 -67 -32 -34 -75 -91 -142 -190 -18 -27 -36 -48 -41
-48 -4 0 -8 -5 -8 -12 0 -6 -11 -26 -25 -44 -14 -18 -25 -35 -25 -38 0 -2 -19
-33 -42 -68 -24 -35 -51 -81 -61 -102 -9 -21 -20 -37 -22 -34 -8 8 18 98 27
98 4 0 8 6 8 13 0 16 57 126 75 147 8 9 20 29 27 45 8 17 36 63 63 104 28 40
55 81 60 90 6 9 25 36 43 61 18 25 40 56 50 69 9 13 23 30 30 37 6 7 12 15 12
18 0 5 47 69 78 107 7 8 48 59 93 114 101 123 128 152 255 279 115 115 163
156 181 156 7 0 13 4 13 9 0 12 56 31 91 31 35 0 77 -38 90 -82 20 -67 2 -522
-22 -538 -4 -3 -15 -61 -24 -130 -9 -69 -21 -133 -26 -142 -5 -10 -9 -28 -9
-40 0 -12 -11 -85 -25 -163 -43 -239 -48 -266 -42 -271 3 -4 22 -1 41 6 29 9
37 18 42 46 3 19 10 34 15 34 5 0 9 5 9 11 0 16 72 163 82 167 4 2 8 9 8 16 0
15 145 304 164 325 7 9 19 32 25 53 7 20 18 38 25 41 7 3 18 23 25 46 6 23 16
41 20 41 5 0 14 14 21 30 7 17 16 30 21 30 5 0 9 6 9 14 0 8 16 37 35 65 19
28 35 53 35 56 0 3 7 13 15 23 9 9 43 54 76 99 90 123 168 197 220 208 29 7
94 -7 145 -30 33 -15 64 -54 64 -79 0 -8 5 -16 11 -18 14 -5 28 -215 30 -451
0 -106 5 -223 10 -262 5 -38 16 -131 25 -205 18 -154 37 -200 82 -200 15 0 37
11 49 24 30 31 101 170 115 224 5 23 14 42 18 42 5 0 16 34 26 75 10 41 21 75
25 75 3 0 12 21 19 48 7 26 16 52 20 57 4 6 11 30 15 55 4 25 16 63 26 85 10
22 23 64 29 92 5 29 16 63 23 75 8 13 20 56 27 96 6 39 16 72 21 72 5 0 9 11
9 24 0 27 14 74 41 133 10 24 19 45 19 48 0 3 23 28 52 56 42 41 56 49 76 44
14 -3 28 -1 32 4 15 26 147 -71 178 -131 7 -13 21 -36 31 -53 11 -16 20 -40
20 -51 1 -12 7 -24 15 -27 7 -3 16 -25 20 -49 4 -23 13 -52 20 -63 7 -11 18
-47 25 -80 7 -33 16 -69 20 -80 5 -11 14 -51 21 -90 7 -38 16 -79 21 -90 6
-16 29 -188 29 -223 0 -6 19 -29 42 -51 32 -32 49 -41 75 -41 l35 0 -7 40 c-4
23 -13 53 -21 69 -19 38 -23 191 -7 271 7 36 19 99 27 140 8 41 24 93 35 115
12 21 21 45 21 53 0 15 50 124 60 132 4 3 13 22 21 43 7 20 16 37 20 37 4 0
15 20 26 45 10 25 21 45 25 45 3 0 21 26 39 58 18 31 42 69 53 83 12 15 31 40
43 55 52 68 126 160 139 174 64 71 109 112 134 125 17 9 30 19 30 24 0 4 17
15 38 25 20 9 60 29 87 45 28 16 67 32 88 36 20 4 45 14 54 23 14 14 38 17
131 17 83 0 116 -3 120 -12 2 -7 12 -13 21 -13 21 0 86 -42 119 -76 31 -33 50
-86 32 -92 -7 -3 -30 -20 -50 -38 -31 -28 -38 -43 -43 -84 -14 -118 -208 -370
-285 -370 -23 0 -24 3 -20 44 3 24 13 58 22 76 9 18 16 38 16 45 0 7 11 33 24
58 14 25 30 64 37 86 7 23 15 41 19 41 13 0 34 83 35 134 l0 51 -38 -1 c-24
-1 -45 -9 -60 -23 -12 -13 -50 -44 -84 -70 -34 -27 -105 -93 -157 -147 -52
-54 -104 -108 -116 -120 -11 -12 -20 -26 -20 -33 0 -6 -7 -14 -15 -18 -9 -3
-23 -20 -32 -37 -9 -17 -19 -33 -22 -36 -14 -11 -98 -147 -111 -180 -8 -19
-19 -38 -26 -42 -6 -4 -17 -28 -24 -53 -7 -25 -16 -45 -19 -45 -4 0 -13 -21
-20 -47 -8 -27 -18 -55 -23 -63 -14 -27 -50 -173 -60 -245 -12 -90 -1 -276 17
-312 8 -16 15 -33 15 -39 0 -17 85 -101 122 -120 18 -9 35 -20 38 -24 7 -9 93
-30 124 -30 14 0 26 -4 26 -10 0 -6 35 -10 85 -10 47 0 85 3 85 8 0 4 34 13
77 20 42 6 83 18 92 26 9 8 30 18 46 22 17 4 36 11 43 17 13 10 62 38 132 74
19 10 44 26 55 36 35 31 49 43 95 78 94 72 274 247 359 349 25 30 54 64 64 75
84 96 98 136 53 156 -13 6 -29 23 -36 37 -6 14 -20 32 -30 39 -10 7 -21 26
-25 42 -3 16 -15 37 -26 47 -10 9 -19 26 -19 36 0 11 -5 28 -11 40 -20 38 -28
137 -18 236 6 53 14 101 20 107 5 5 9 21 9 35 0 14 8 41 19 60 10 19 24 59 31
88 6 28 16 52 21 52 5 0 9 6 9 13 0 39 107 196 161 238 18 13 38 29 44 36 21
20 95 34 181 34 92 0 104 -4 104 -28 0 -20 68 -123 81 -123 5 0 9 -5 9 -10 0
-6 9 -23 20 -38 30 -40 60 -131 60 -179 0 -56 -47 -293 -60 -303 -4 -3 -11
-27 -17 -55 -13 -60 -71 -206 -113 -287 -36 -66 -25 -91 45 -104 22 -4 43 -12
47 -18 10 -14 266 -15 276 0 4 6 34 16 67 24 33 7 66 18 74 24 8 6 46 27 85
46 81 40 77 28 61 196 -8 87 7 208 29 234 7 8 16 27 19 41 4 14 16 36 27 49
11 13 20 27 20 32 0 11 115 125 160 158 18 14 43 33 54 43 24 21 56 38 188
104 54 26 100 55 103 64 3 9 -1 67 -10 130 -8 63 -15 137 -15 166 0 28 -4 53
-10 55 -38 13 -39 1012 0 1038 4 3 13 30 20 60 7 30 21 71 31 90 11 19 19 40
19 47 0 20 137 152 165 159 14 3 25 10 25 15 0 12 57 12 64 0z m-4514 -1028
c14 -16 39 -55 55 -88 16 -33 42 -76 57 -96 16 -20 28 -40 28 -44 0 -4 7 -13
16 -20 20 -14 30 -95 15 -123 -18 -34 -81 -45 -184 -33 -79 9 -92 14 -118 41
-45 46 -34 122 28 191 11 14 21 92 23 192 0 19 57 5 80 -20z m5292 -162 c103
-119 240 -299 338 -446 118 -177 268 -440 257 -452 -7 -6 -109 -33 -127 -33
-8 0 -32 32 -54 73 -120 220 -276 453 -441 655 -55 68 -107 133 -116 145 -15
19 -15 33 -7 97 14 106 14 106 39 84 12 -11 62 -66 111 -123z m3523 -675 c217
-59 363 -205 425 -426 14 -50 24 -130 31 -244 5 -92 9 -170 7 -171 -4 -5 -684
-175 -697 -175 -5 0 -12 60 -16 133 -10 205 -39 277 -130 318 -84 39 -272 14
-394 -51 -110 -59 -179 -146 -205 -260 -29 -120 -17 -228 37 -338 71 -146 248
-270 612 -427 159 -68 307 -146 415 -217 111 -72 250 -208 299 -290 41 -71 86
-201 100 -288 19 -113 14 -329 -10 -443 -99 -489 -516 -831 -1184 -974 -115
-24 -151 -27 -320 -28 -172 0 -197 2 -265 23 -235 74 -375 244 -419 508 -6 38
-13 140 -14 228 l-2 158 353 88 352 87 0 -96 c1 -299 45 -402 185 -431 119
-25 316 28 436 116 103 76 150 184 150 349 1 306 -131 452 -598 661 -482 216
-695 372 -803 589 -152 304 -104 737 114 1032 216 293 619 503 1109 578 119
18 350 13 432 -9z m-1937 -702 l-3 -237 -644 -160 -644 -159 8 -175 c5 -126 4
-173 -4 -169 -6 4 -11 17 -11 30 0 34 -115 200 -199 286 -95 97 -152 118 -266
96 l-41 -8 -36 74 c-52 103 -80 183 -76 215 l3 28 950 235 950 236 8 -27 c4
-16 6 -135 5 -265z m-2685 -491 c9 -21 30 -72 47 -113 17 -41 35 -82 40 -90 5
-8 30 -51 56 -95 26 -44 55 -93 65 -110 10 -16 31 -43 48 -59 19 -19 31 -39
31 -55 -1 -14 -121 -721 -268 -1571 l-268 -1545 -492 -124 c-271 -68 -496
-121 -499 -117 -7 7 -673 3022 -673 3046 0 8 33 37 73 64 39 28 104 75 142
105 90 71 320 301 365 366 26 37 42 50 60 50 l25 0 257 -1325 c141 -729 259
-1332 261 -1340 3 -13 5 -13 10 0 3 8 101 650 217 1425 116 776 216 1421 223
1435 13 26 22 30 134 54 40 9 82 20 95 26 34 13 34 13 51 -27z m1417 -1026 c3
-3 232 51 509 119 277 69 504 124 506 122 1 -2 6 -120 10 -263 l7 -260 -515
-128 -514 -129 3 -251 c3 -139 7 -392 10 -563 l6 -310 617 152 c339 84 628
155 642 159 l26 7 5 -264 c3 -145 4 -264 4 -265 -4 -6 -2030 -502 -2034 -498
-7 7 -45 2626 -38 2632 2 3 20 0 38 -6 59 -19 171 -35 253 -35 243 -2 400 87
442 249 4 18 10 -69 13 -217 3 -135 7 -249 10 -251z m-4777 108 c59 -51 185
-118 267 -140 175 -48 167 -47 344 -42 129 3 181 8 210 21 22 9 43 13 46 9 6
-7 700 -2927 700 -2945 0 -7 -740 -191 -746 -186 -2 2 -35 154 -74 338 -38
183 -72 335 -74 337 -4 4 -834 -195 -843 -201 -1 -1 -31 -171 -65 -378 l-62
-377 -345 -86 c-189 -47 -345 -84 -347 -82 -3 3 676 3664 691 3724 4 16 10 20
26 16 19 -5 89 6 164 27 50 13 55 12 108 -35z m-1677 -320 c228 -40 368 -170
429 -400 19 -70 38 -431 29 -545 -24 -317 -157 -552 -407 -718 l-70 -47 74 -7
c124 -13 209 -50 275 -120 52 -55 70 -85 100 -164 47 -126 54 -207 64 -719 5
-265 14 -509 20 -545 6 -36 24 -91 39 -123 18 -38 24 -60 17 -63 -6 -2 -168
-42 -361 -90 -192 -47 -358 -87 -367 -90 -12 -4 -23 6 -38 35 -46 91 -50 139
-60 671 -10 547 -14 581 -68 669 -44 71 -84 86 -227 85 -106 -1 -139 -6 -278
-41 -87 -22 -159 -42 -160 -44 -2 -2 2 -357 9 -789 6 -432 10 -786 10 -787 -4
-6 -740 -182 -745 -178 -4 5 -47 2799 -51 3415 l-2 264 68 18 c38 9 85 20 104
23 l35 6 23 -98 c19 -83 28 -105 60 -140 49 -55 132 -109 195 -128 148 -44
399 6 516 103 24 20 54 44 67 52 23 16 86 91 142 168 19 26 48 67 66 92 19 25
55 87 81 138 33 64 55 94 69 97 83 18 237 18 342 0z m-2587 -586 c243 -38 426
-207 486 -449 14 -56 32 -354 34 -571 l1 -47 -350 -87 c-193 -48 -353 -86
-355 -83 -2 2 -7 112 -10 243 -8 279 -17 330 -74 386 -62 62 -164 75 -305 39
-169 -43 -272 -117 -328 -237 -26 -55 -32 -81 -35 -162 -7 -152 26 -2153 36
-2187 43 -148 154 -193 358 -144 164 39 285 126 339 243 l29 62 -1 343 0 342
35 10 c20 5 178 45 352 88 l316 79 6 -141 c11 -234 8 -475 -7 -576 -77 -505
-493 -864 -1167 -1005 -169 -36 -399 -45 -519 -21 -239 47 -405 198 -470 426
-29 104 -36 303 -51 1415 -12 1000 -12 1007 42 1175 113 348 418 619 863 765
293 97 555 128 775 94z m9004 -1866 c-454 -646 -1030 -1141 -1723 -1482 -304
-150 -568 -246 -915 -331 -360 -89 -639 -127 -995 -137 -593 -15 -1213 96
-1785 322 -172 68 -459 207 -443 215 7 4 55 17 105 30 l93 22 162 -70 c440
-189 825 -292 1303 -348 211 -25 709 -25 920 0 552 65 1017 199 1490 430 598
293 1125 725 1539 1261 l78 100 96 27 c53 14 103 27 110 27 7 1 -8 -29 -35
-66z"/>
<path d="M10750 10872 c0 -4 -11 -19 -24 -33 -48 -52 -74 -135 -82 -267 -4
-56 -11 -105 -16 -108 -12 -7 -10 -54 2 -54 7 0 7 -6 0 -19 -13 -25 -13 -68 0
-76 6 -3 10 -45 11 -93 1 -97 13 -245 27 -337 5 -33 18 -117 28 -187 17 -126
18 -128 43 -128 37 0 47 10 61 58 7 23 16 42 20 42 4 0 11 15 14 34 4 19 13
39 21 46 8 7 18 28 21 49 4 20 15 52 25 71 11 20 24 63 30 95 6 33 15 68 20
78 14 27 39 212 39 297 0 90 -24 258 -39 273 -6 6 -11 18 -11 28 0 51 -134
239 -171 239 -10 0 -19 -3 -19 -8z"/>
<path d="M9018 9188 c-21 -23 -38 -48 -38 -56 0 -8 -6 -26 -14 -40 -68 -125
-71 -138 -71 -297 0 -170 7 -195 56 -195 26 0 33 6 50 45 11 24 23 47 28 49 5
3 14 26 20 51 6 25 16 45 21 45 6 0 10 11 10 24 0 14 5 37 11 53 15 39 28 218
22 297 -6 63 -7 66 -32 66 -18 0 -38 -14 -63 -42z"/>
<path d="M10440 9071 c-8 -10 -35 -31 -60 -47 -24 -16 -52 -36 -61 -44 -9 -8
-31 -26 -49 -40 -18 -14 -36 -27 -39 -30 -18 -14 -81 -99 -81 -109 0 -6 -4
-11 -10 -11 -5 0 -15 -18 -21 -39 -23 -77 27 -131 80 -85 51 45 90 86 130 135
24 30 55 65 68 79 58 62 127 175 119 196 -8 20 -58 17 -76 -5z"/>
<path d="M7235 6583 c-16 -98 -83 -524 -150 -948 -67 -423 -122 -771 -121
-772 1 -2 660 159 664 162 4 3 -351 1720 -358 1728 -4 4 -20 -72 -35 -170z"/>
<path d="M4565 6199 c-109 -27 -200 -51 -201 -52 -4 -4 14 -1038 18 -1042 7
-7 344 83 401 107 75 31 180 102 211 143 81 106 100 206 91 480 -7 217 -20
287 -62 344 -67 88 -169 92 -458 20z"/>
</g>
</svg>
